<?xml version="1.0" standalone="no"?>
<!DOCTYPE svg PUBLIC "-//W3C//DTD SVG 20010904//EN"
 "http://www.w3.org/TR/2001/REC-SVG-20010904/DTD/svg10.dtd">
<svg version="1.0" xmlns="http://www.w3.org/2000/svg"
 width="1024.000000pt" height="1024.000000pt" viewBox="0 0 1024.000000 1024.000000"
 preserveAspectRatio="xMidYMid meet">
<metadata>
Created by potrace 1.16, written by Peter Selinger 2001-2019
</metadata>
<g transform="translate(0.000000,1024.000000) scale(0.100000,-0.100000)"
fill="#000000" stroke="none">
<path d="M5053 8056 c9 -13 30 -39 46 -57 40 -44 106 -177 125 -255 20 -77 20
-236 2 -325 -47 -221 -194 -409 -476 -610 -42 -30 -87 -62 -100 -72 -52 -37
80 40 195 114 89 58 123 75 132 67 9 -7 13 -7 13 2 0 9 4 10 13 2 7 -6 45 -10
85 -9 40 2 75 1 77 -1 2 -3 53 -5 112 -6 59 -1 114 -5 121 -9 6 -5 12 -4 12 1
0 12 43 10 52 -3 5 -6 8 -5 8 3 0 7 5 10 11 6 6 -3 39 -8 73 -11 84 -5 92 -7
112 -23 16 -13 17 -13 11 2 -4 11 -2 17 5 15 6 -1 27 27 45 63 63 123 62 309
-3 490 -90 253 -317 488 -581 604 -97 43 -111 45 -90 12z"/>
<path d="M4395 7166 c-46 -45 -156 -134 -369 -297 -145 -110 -321 -267 -312
-276 3 -3 -4 -21 -15 -40 -11 -19 -16 -39 -13 -45 5 -7 2 -8 -6 -3 -10 6 -12
4 -7 -8 3 -10 2 -17 -4 -17 -6 0 -8 -4 -4 -9 3 -5 0 -13 -6 -16 -5 -4 -8 -13
-5 -21 3 -8 0 -14 -6 -14 -7 0 -6 -6 3 -16 8 -10 9 -18 3 -22 -6 -4 -11 -18
-11 -31 -1 -13 -6 -27 -10 -30 -4 -3 -9 -17 -10 -31 -5 -54 -13 -107 -23 -139
-5 -19 -7 -38 -3 -44 3 -6 1 -7 -5 -3 -6 4 -11 -1 -11 -11 0 -10 -3 -61 -7
-113 -11 -154 18 -318 83 -483 28 -69 38 -85 47 -74 6 7 23 21 38 30 26 16 27
16 30 -6 2 -12 7 21 12 73 28 345 139 619 336 832 91 99 177 168 397 317 156
106 264 185 226 166 -8 -4 -13 1 -13 14 0 12 5 21 11 21 6 0 4 7 -5 15 -24 24
-29 55 -13 73 22 24 22 24 9 49 -8 13 -8 24 -2 28 5 3 7 12 4 20 -4 8 -10 12
-15 9 -13 -8 -11 10 3 24 9 9 9 12 -1 12 -7 0 -9 5 -6 10 3 6 0 10 -7 10 -8 0
-9 3 -3 8 6 4 21 21 35 37 14 16 0 7 -30 -20 -129 -118 -384 -305 -397 -292
-3 3 9 25 25 49 16 24 41 70 55 103 25 60 53 175 46 192 -2 5 -22 -9 -44 -31z"/>
<path d="M7375 7183 c-115 -96 -293 -190 -483 -254 -345 -118 -713 -171 -1257
-184 -474 -11 -775 -70 -1050 -206 -194 -95 -352 -227 -456 -380 -103 -152
-185 -379 -194 -534 -4 -82 -3 -79 16 40 28 174 112 364 214 483 30 34 40 40
51 31 8 -6 12 -15 9 -18 -2 -4 2 -8 10 -8 18 0 19 9 3 27 -11 12 -10 12 5 1 9
-7 17 -19 17 -27 0 -35 60 -35 89 0 11 14 16 14 23 4 6 -11 10 -11 17 0 6 11
10 10 15 -3 4 -11 12 -15 23 -11 10 4 14 4 10 0 -4 -4 -1 -14 6 -22 10 -13 9
-15 -8 -8 -15 5 -17 4 -8 -4 8 -9 16 -9 30 -1 10 6 13 11 7 11 -15 0 -13 28 2
34 9 3 11 -1 7 -11 -5 -12 -2 -15 10 -10 8 3 21 -1 27 -8 8 -10 18 -12 29 -6
9 4 42 7 74 7 32 -1 60 1 63 6 3 4 -1 5 -9 2 -8 -3 -18 0 -22 6 -3 6 -3 10 2
9 20 -3 27 2 13 11 -9 6 -10 10 -3 10 6 0 15 -5 18 -10 5 -8 12 -7 22 1 12 10
16 10 23 -1 5 -8 6 -18 3 -24 -3 -5 -1 -6 5 -2 7 4 12 1 12 -6 0 -8 9 -14 19
-14 11 0 18 3 15 7 -6 10 33 22 45 15 5 -4 12 0 14 6 4 10 6 10 6 0 1 -7 5
-11 10 -7 5 3 17 -2 26 -12 16 -16 16 -17 -5 -25 -13 -5 -20 -11 -17 -14 3 -3
14 -1 24 4 22 11 41 6 72 -22 13 -11 21 -16 17 -9 -3 6 -2 14 4 18 6 4 7 12 3
18 -3 7 4 3 16 -8 l22 -19 -10 26 c-9 23 -7 25 10 21 14 -4 18 -11 13 -26 -5
-17 -4 -18 9 -6 8 8 13 17 11 20 -2 4 2 9 10 12 9 4 12 -2 11 -17 -2 -17 3
-22 23 -24 28 -2 44 -20 37 -40 -3 -7 0 -10 6 -7 6 4 8 13 5 21 -4 12 -2 12
14 4 12 -6 20 -7 20 -1 0 5 9 7 20 4 15 -4 19 -2 14 10 -3 9 -1 24 5 34 11 19
11 19 15 -32 1 -15 7 -19 25 -17 14 1 28 -3 32 -9 12 -19 117 -17 138 3 13 12
22 13 29 6 20 -20 61 -18 76 4 15 21 41 16 33 -6 -3 -7 4 -13 14 -13 10 -1 19
3 19 8 0 6 -4 8 -8 5 -5 -3 -9 1 -9 7 0 7 12 14 26 14 22 1 23 0 7 -6 -14 -5
-16 -10 -7 -15 15 -9 81 2 99 16 8 8 12 7 12 -3 0 -9 3 -10 8 -4 10 14 52 17
68 4 10 -8 20 -4 41 15 24 22 29 24 32 10 2 -13 5 -14 11 -4 5 8 13 9 21 4 18
-11 49 -13 43 -2 -3 4 2 8 10 8 14 0 20 -10 18 -30 0 -3 10 -7 24 -8 13 -1 24
3 24 9 0 5 -4 7 -10 4 -16 -10 -11 1 7 16 11 10 14 10 9 2 -5 -9 1 -13 18 -13
14 0 26 -5 26 -11 0 -6 8 -3 17 7 15 14 18 15 22 1 5 -13 8 -13 19 -1 10 10
10 14 1 14 -7 0 -10 3 -6 6 3 3 11 2 18 -2 7 -4 25 -9 38 -10 20 -3 23 -1 11
7 -12 8 -9 10 13 6 15 -2 30 -1 33 4 8 13 34 -1 34 -19 0 -8 3 -12 8 -8 7 7 8
12 11 38 1 7 8 5 19 -5 23 -21 32 -21 32 -2 0 13 4 14 22 4 18 -10 20 -9 15 5
-3 8 -1 18 6 22 7 4 9 4 5 -1 -9 -10 10 -35 26 -35 6 0 4 4 -4 10 -8 5 -11 12
-7 16 3 4 12 2 19 -3 17 -13 51 -13 61 1 6 7 7 4 3 -7 -5 -14 -1 -16 22 -12
26 5 26 5 4 -5 -13 -5 -27 -8 -30 -6 -4 2 -13 -3 -21 -11 -12 -13 -11 -14 10
-8 57 18 71 26 66 39 -4 10 5 13 34 11 23 -1 36 2 33 7 -4 6 3 8 17 3 19 -5
21 -4 9 4 -23 16 7 33 33 19 14 -7 17 -7 13 1 -4 6 0 14 8 17 9 3 16 11 16 17
0 5 -9 2 -20 -8 -11 -10 -20 -14 -20 -9 0 5 12 18 27 28 14 11 23 14 19 8 -4
-7 -2 -12 3 -12 6 0 11 4 11 8 0 5 12 14 27 21 24 11 25 11 12 -5 -13 -16 -12
-16 9 -5 13 7 30 10 37 7 25 -9 169 96 265 193 187 189 278 366 335 648 9 46
15 98 13 117 l-3 34 -30 -25z m-2936 -980 c2 -2 -3 -3 -11 -3 -9 0 -19 7 -22
16 -6 15 -4 15 11 3 10 -7 20 -15 22 -16z m176 -13 c3 -5 -1 -10 -10 -10 -9 0
-13 5 -10 10 3 6 8 10 10 10 2 0 7 -4 10 -10z m-77 -25 c-3 -3 -9 2 -12 12 -6
14 -5 15 5 6 7 -7 10 -15 7 -18z m-78 5 c0 -5 -5 -10 -11 -10 -5 0 -7 5 -4 10
3 6 8 10 11 10 2 0 4 -4 4 -10z m-148 -31 c-23 -9 -27 -3 -11 14 10 11 16 12
21 3 4 -6 0 -14 -10 -17z m299 17 c5 3 9 0 9 -5 0 -6 -7 -11 -15 -11 -8 0 -15
8 -14 18 0 10 3 12 6 4 2 -6 9 -10 14 -6z m-87 -22 c3 -8 2 -12 -4 -9 -6 3
-10 10 -10 16 0 14 7 11 14 -7z m429 -18 c9 5 9 4 0 -6 -13 -15 -37 -4 -26 13
5 8 8 8 11 -1 2 -7 9 -9 15 -6z m201 -24 c3 -5 -1 -9 -9 -9 -8 0 -15 4 -15 9
0 4 4 8 9 8 6 0 12 -4 15 -8z m601 -2 c-3 -5 -12 -10 -18 -10 -7 0 -6 4 3 10
19 12 23 12 15 0z m-272 -14 c4 -10 0 -14 -13 -13 -14 1 -16 4 -8 14 13 16 15
16 21 -1z m-87 -28 c2 -14 -1 -16 -16 -8 -9 5 -20 6 -24 2 -4 -3 -4 2 0 11 8
22 36 18 40 -5z"/>
<path d="M4800 6121 c0 -5 5 -13 10 -16 6 -3 10 -2 10 4 0 5 -4 13 -10 16 -5
3 -10 2 -10 -4z"/>
<path d="M6545 6100 c-3 -6 1 -7 9 -4 18 7 21 14 7 14 -6 0 -13 -4 -16 -10z"/>
<path d="M6128 5993 c7 -3 16 -2 19 1 4 3 -2 6 -13 5 -11 0 -14 -3 -6 -6z"/>
<path d="M4762 5688 c-18 -23 -41 -121 -47 -208 -3 -47 -8 -111 -11 -142 l-6
-58 749 0 c447 0 776 4 818 10 96 14 222 49 246 69 19 15 -44 16 -842 13
l-862 -4 5 166 6 166 -23 0 c-12 0 -27 -6 -33 -12z"/>
<path d="M6795 4994 c58 -58 77 -137 83 -352 6 -248 -16 -446 -89 -771 -16
-74 -28 -136 -26 -138 13 -12 134 495 138 581 1 17 2 18 6 3 2 -10 10 -16 16
-15 7 1 35 -3 62 -9 48 -11 168 -13 178 -3 8 8 29 270 23 293 -7 28 -93 63
-191 77 -38 6 -73 14 -76 18 -4 4 -14 50 -23 102 -12 67 -27 114 -51 158 -32
58 -32 80 1 48 7 -8 22 -12 31 -10 10 3 58 -4 106 -15 95 -23 116 -25 78 -10
-19 8 -207 56 -283 73 -10 2 -3 -9 17 -30z"/>
<path d="M3387 5002 c-30 -33 -57 -110 -74 -210 l-16 -100 -46 -10 c-42 -10
-69 -18 -186 -56 l-40 -13 1 -94 c0 -52 6 -126 13 -165 l12 -70 57 8 c31 5 72
11 91 14 19 2 51 8 73 13 34 8 39 7 42 -13 3 -11 17 -82 31 -156 24 -126 70
-302 94 -360 16 -42 12 -14 -14 89 -13 53 -39 180 -56 281 -31 174 -33 200
-33 435 -1 216 2 258 17 310 11 33 28 72 39 87 22 32 19 37 -5 10z"/>
<path d="M7282 4700 c0 -19 2 -27 5 -17 2 9 2 25 0 35 -3 9 -5 1 -5 -18z"/>
<path d="M7287 4500 c-4 -85 -21 -247 -38 -359 -16 -112 -28 -205 -26 -207 1
-2 16 64 32 147 24 125 31 149 44 144 9 -4 38 -8 66 -11 27 -3 68 -9 90 -14
22 -5 43 -6 47 -2 8 9 28 174 28 239 0 41 -3 51 -14 47 -8 -3 -59 9 -115 27
l-100 31 -3 57 c-2 31 -7 -14 -11 -99z"/>
<path d="M2780 4496 l-85 -22 -3 -59 c-2 -33 2 -97 8 -143 10 -71 15 -82 29
-76 29 12 105 25 154 27 41 2 48 -1 52 -18 52 -251 60 -265 24 -45 -11 69 -25
170 -30 225 -6 55 -14 107 -18 115 -11 22 -36 21 -131 -4z"/>
<path d="M5435 4393 c37 -3 103 -29 115 -45 3 -4 30 -8 60 -11 30 -2 -57 -4
-194 -5 -240 -2 -252 -3 -315 -27 -36 -14 -77 -32 -91 -40 -14 -8 -40 -22 -57
-32 -18 -9 -33 -23 -33 -30 0 -10 59 -13 303 -13 406 0 850 -22 1231 -60 55
-6 102 -8 105 -4 3 3 8 45 9 94 4 78 2 89 -15 98 -57 30 -732 83 -1013 80 -80
-1 -127 -3 -105 -5z"/>
<path d="M7607 4287 c-4 -54 -17 -153 -28 -219 -11 -66 -18 -122 -16 -125 3
-2 8 13 11 34 4 21 11 54 17 74 l9 36 82 -1 81 -1 9 30 c4 17 10 71 13 120 2
52 1 77 -3 60 -5 -19 -13 -29 -23 -26 -8 2 -42 11 -76 19 l-62 16 -3 40 c-2
24 -6 0 -11 -57z"/>
<path d="M3740 4334 c-8 -1 -37 -6 -64 -9 l-48 -7 4 -98 c2 -55 6 -101 9 -104
3 -4 42 -1 87 6 l82 11 0 104 0 103 -27 -1 c-16 -1 -35 -3 -43 -5z"/>
<path d="M2525 4263 c-11 -3 -31 -10 -45 -16 -14 -6 -29 -9 -34 -8 -9 2 -1
-115 10 -143 6 -16 31 -14 111 8 l52 14 11 -70 c7 -38 14 -67 17 -64 3 2 -2
42 -11 88 -8 46 -19 108 -23 138 -8 52 -10 55 -38 57 -17 0 -39 -1 -50 -4z"/>
<path d="M4769 4128 c-8 -7 -18 -13 -24 -14 -28 -3 -55 -18 -59 -33 -2 -9 -7
-99 -11 -201 -7 -195 -21 -391 -32 -425 -5 -18 -4 -19 12 -5 27 22 104 129
123 170 13 28 17 80 20 269 4 233 0 266 -29 239z"/>
<path d="M7840 4071 c0 -26 4 -31 23 -31 12 0 33 -7 45 -16 21 -15 22 -14 22
13 0 40 -10 50 -53 58 -36 7 -37 7 -37 -24z"/>
<path d="M2354 4075 c-18 -14 -18 -14 4 -8 12 3 22 9 22 14 0 12 -3 11 -26 -6z"/>
<path d="M2300 4049 c0 -5 5 -7 10 -4 6 3 10 8 10 11 0 2 -4 4 -10 4 -5 0 -10
-5 -10 -11z"/>
<path d="M7212 3900 c0 -14 2 -19 5 -12 2 6 2 18 0 25 -3 6 -5 1 -5 -13z"/>
<path d="M7201 3854 c0 -11 3 -14 6 -6 3 7 2 16 -1 19 -3 4 -6 -2 -5 -13z"/>
</g>
</svg>
